<svg width="176" height="65" viewBox="0 0 176 65" fill="none" xmlns="http://www.w3.org/2000/svg">
<g filter="url(#filter0_i_272_39)">
<path d="M66.7236 34.187C74.8341 34.187 82.0488 28.1355 84.6423 25.1098C80.8699 32.4659 70.5745 36.0339 65.8984 36.8984L66.7236 34.187Z" fill="url(#paint0_linear_272_39)"/>
<path d="M107.159 34.3049C99.0482 34.3049 91.8335 28.2534 89.24 25.2276C93.0124 32.5837 103.308 36.1518 107.984 37.0163L107.159 34.3049Z" fill="url(#paint1_linear_272_39)"/>
<path d="M61.8904 30.7683C75.7538 31.1455 83.7779 24.7168 86.057 21.4552C80.87 30.0374 66.8416 33.7547 60.4757 34.5406L61.8904 30.7683Z" fill="url(#paint2_linear_272_39)"/>
<path d="M111.874 30.8862C98.0106 31.2634 89.9865 24.8347 87.7073 21.5731C92.8943 30.1553 106.923 33.8726 113.289 34.6585L111.874 30.8862Z" fill="url(#paint3_linear_272_39)"/>
<path d="M86.057 0.235767L86.057 19.2155C80.0213 27.9862 64.8375 29.9431 58.0001 29.8252L64.7196 7.30894C74.6221 7.21463 83.0706 2.5542 86.057 0.235767Z" fill="url(#paint4_linear_272_39)"/>
<path d="M87.4715 1.90735e-06L87.4715 19.2033C93.6087 28.0774 109.048 30.0574 116 29.9381L109.168 7.15653C99.0987 7.06111 90.5082 2.34575 87.4715 1.90735e-06Z" fill="url(#paint5_linear_272_39)"/>
</g>
<g filter="url(#filter1_i_272_39)">
<path d="M34.4092 59.45C33.9925 59.45 33.6592 59.325 33.4092 59.075C33.1758 58.8416 33.0592 58.5 33.0592 58.05V55C33.0592 54.0333 33.5425 53.55 34.5092 53.55H35.9092L34.0592 54.2C34.4925 53.6166 34.8342 53.0083 35.0842 52.375C35.3342 51.7416 35.5175 51.0166 35.6342 50.2C35.7508 49.3666 35.8092 48.3833 35.8092 47.25V45.525C35.8092 44.9583 35.9592 44.525 36.2592 44.225C36.5592 43.925 36.9925 43.775 37.5592 43.775H43.5842C44.1508 43.775 44.5842 43.925 44.8842 44.225C45.1842 44.525 45.3342 44.9583 45.3342 45.525V55L43.8842 53.55H45.8842C46.3508 53.55 46.7092 53.675 46.9592 53.925C47.2092 54.1583 47.3342 54.5166 47.3342 55V58.05C47.3342 58.9833 46.8925 59.45 46.0092 59.45C45.5758 59.45 45.2425 59.325 45.0092 59.075C44.7925 58.8416 44.6842 58.5 44.6842 58.05V56H35.7092V58.05C35.7092 58.9833 35.2758 59.45 34.4092 59.45ZM37.2842 53.55H42.4092V46.175H38.4842V47.975C38.4842 49.025 38.3758 50.0416 38.1592 51.025C37.9592 52.0083 37.6675 52.85 37.2842 53.55ZM55.2383 56.25C53.9716 56.25 52.8716 55.9916 51.9383 55.475C51.0049 54.9583 50.2799 54.225 49.7633 53.275C49.2466 52.3083 48.9883 51.175 48.9883 49.875C48.9883 48.8916 49.1299 48.0166 49.4133 47.25C49.7133 46.4666 50.1383 45.8 50.6883 45.25C51.2383 44.6833 51.8966 44.2583 52.6633 43.975C53.4299 43.675 54.2883 43.525 55.2383 43.525C56.5049 43.525 57.6049 43.7833 58.5383 44.3C59.4716 44.8166 60.1966 45.55 60.7133 46.5C61.2299 47.45 61.4883 48.575 61.4883 49.875C61.4883 50.8583 61.3383 51.7416 61.0383 52.525C60.7549 53.3083 60.3383 53.9833 59.7883 54.55C59.2383 55.1 58.5799 55.525 57.8133 55.825C57.0466 56.1083 56.1883 56.25 55.2383 56.25ZM55.2383 53.875C55.8549 53.875 56.3966 53.725 56.8633 53.425C57.3299 53.125 57.6883 52.6833 57.9383 52.1C58.2049 51.5 58.3383 50.7583 58.3383 49.875C58.3383 48.5416 58.0549 47.55 57.4883 46.9C56.9216 46.2333 56.1716 45.9 55.2383 45.9C54.6216 45.9 54.0799 46.05 53.6133 46.35C53.1466 46.6333 52.7799 47.075 52.5133 47.675C52.2633 48.2583 52.1383 48.9916 52.1383 49.875C52.1383 51.1916 52.4216 52.1916 52.9883 52.875C53.5549 53.5416 54.3049 53.875 55.2383 53.875ZM65.7594 56.2C65.326 56.2 64.9844 56.075 64.7344 55.825C64.501 55.5583 64.3844 55.1916 64.3844 54.725V45.275C64.3844 44.9083 64.4344 44.6 64.5344 44.35C64.6344 44.1 64.7927 43.9083 65.0094 43.775C65.226 43.6416 65.4927 43.575 65.8094 43.575C66.126 43.575 66.3844 43.6333 66.5844 43.75C66.801 43.85 66.9844 43.9833 67.1344 44.15C67.2844 44.3166 67.4094 44.5 67.5094 44.7L71.1844 51L74.8594 44.7C74.976 44.4833 75.101 44.2916 75.2344 44.125C75.3844 43.9583 75.5594 43.825 75.7594 43.725C75.976 43.625 76.2344 43.575 76.5344 43.575C77.0177 43.575 77.376 43.725 77.6094 44.025C77.8427 44.3083 77.9594 44.725 77.9594 45.275V54.725C77.9594 55.1916 77.8427 55.5583 77.6094 55.825C77.376 56.075 77.0344 56.2 76.5844 56.2C76.151 56.2 75.8094 56.075 75.5594 55.825C75.326 55.5583 75.2094 55.1916 75.2094 54.725V47.375H75.8094L72.2344 53.475C72.151 53.625 72.026 53.775 71.8594 53.925C71.7094 54.0583 71.4844 54.125 71.1844 54.125C70.8677 54.125 70.6344 54.05 70.4844 53.9C70.3344 53.75 70.2177 53.6083 70.1344 53.475L66.5344 47.375H67.1344V54.725C67.1344 55.1916 67.0177 55.5583 66.7844 55.825C66.551 56.075 66.2094 56.2 65.7594 56.2ZM82.9486 56.2C82.632 56.2 82.3653 56.1416 82.1486 56.025C81.932 55.9083 81.7653 55.725 81.6486 55.475C81.5486 55.225 81.4986 54.9083 81.4986 54.525V45.075C81.4986 44.5916 81.6236 44.225 81.8736 43.975C82.1236 43.7083 82.4736 43.575 82.9236 43.575C83.3736 43.575 83.7153 43.7083 83.9486 43.975C84.1986 44.225 84.3236 44.5916 84.3236 45.075V52.8H83.6736L89.8486 44.575C90.032 44.3416 90.257 44.1166 90.5236 43.9C90.7903 43.6833 91.157 43.575 91.6236 43.575C91.9403 43.575 92.1986 43.6333 92.3986 43.75C92.6153 43.8666 92.7736 44.05 92.8736 44.3C92.9903 44.5333 93.0486 44.8416 93.0486 45.225V54.7C93.0486 55.1666 92.9236 55.5333 92.6736 55.8C92.4403 56.0666 92.0986 56.2 91.6486 56.2C91.182 56.2 90.8236 56.0666 90.5736 55.8C90.3403 55.5333 90.2236 55.1666 90.2236 54.7V46.95H90.8986L84.6986 55.2C84.532 55.4333 84.3153 55.6583 84.0486 55.875C83.7986 56.0916 83.432 56.2 82.9486 56.2ZM98.1365 56C97.6365 56 97.2532 55.8666 96.9865 55.6C96.7199 55.3333 96.5865 54.95 96.5865 54.45V45.15C96.5865 44.6166 96.7115 44.225 96.9615 43.975C97.2282 43.7083 97.5949 43.575 98.0615 43.575C98.5449 43.575 98.9115 43.7083 99.1615 43.975C99.4115 44.225 99.5365 44.6166 99.5365 45.15V53.55H103.737V45.15C103.737 44.6166 103.862 44.225 104.112 43.975C104.378 43.7083 104.745 43.575 105.212 43.575C105.695 43.575 106.062 43.7083 106.312 43.975C106.562 44.225 106.687 44.6166 106.687 45.15V53.55H110.887V45.15C110.887 44.6166 111.012 44.225 111.262 43.975C111.528 43.7083 111.895 43.575 112.362 43.575C112.845 43.575 113.212 43.7083 113.462 43.975C113.712 44.225 113.837 44.6166 113.837 45.15V54.45C113.837 54.95 113.703 55.3333 113.437 55.6C113.17 55.8666 112.787 56 112.287 56H98.1365ZM118.962 56.2C118.462 56.2 118.071 56.0666 117.787 55.8C117.521 55.5166 117.387 55.1166 117.387 54.6V45.2C117.387 44.6833 117.521 44.2916 117.787 44.025C118.071 43.7416 118.462 43.6 118.962 43.6C119.462 43.6 119.846 43.7416 120.112 44.025C120.379 44.2916 120.512 44.6833 120.512 45.2V48.525H122.287L125.412 44.325C125.646 44.0083 125.912 43.8083 126.212 43.725C126.512 43.625 126.796 43.6166 127.062 43.7C127.346 43.7833 127.571 43.9333 127.737 44.15C127.921 44.3666 128.012 44.625 128.012 44.925C128.029 45.2083 127.921 45.5083 127.687 45.825L124.712 49.9L124.037 48.9C124.487 48.95 124.887 49.075 125.237 49.275C125.604 49.475 125.937 49.7583 126.237 50.125C126.554 50.475 126.862 50.9166 127.162 51.45L128.637 54.075C128.837 54.425 128.904 54.75 128.837 55.05C128.787 55.3333 128.646 55.575 128.412 55.775C128.196 55.975 127.937 56.1 127.637 56.15C127.337 56.2 127.037 56.1583 126.737 56.025C126.454 55.9083 126.212 55.675 126.012 55.325L124.337 52.4C124.121 52.0166 123.904 51.725 123.687 51.525C123.487 51.3083 123.254 51.1583 122.987 51.075C122.737 50.9916 122.429 50.95 122.062 50.95H120.512V54.6C120.512 55.1166 120.379 55.5166 120.112 55.8C119.846 56.0666 119.462 56.2 118.962 56.2ZM135.402 56.25C134.519 56.25 133.727 56.0833 133.027 55.75C132.344 55.4 131.802 54.9333 131.402 54.35C131.019 53.7666 130.827 53.1083 130.827 52.375C130.827 51.475 131.06 50.7666 131.527 50.25C131.994 49.7166 132.752 49.3333 133.802 49.1C134.852 48.8666 136.26 48.75 138.027 48.75H139.277V50.55H138.052C137.019 50.55 136.194 50.6 135.577 50.7C134.96 50.8 134.519 50.975 134.252 51.225C134.002 51.4583 133.877 51.7916 133.877 52.225C133.877 52.775 134.069 53.225 134.452 53.575C134.835 53.925 135.369 54.1 136.052 54.1C136.602 54.1 137.085 53.975 137.502 53.725C137.935 53.4583 138.277 53.1 138.527 52.65C138.777 52.2 138.902 51.6833 138.902 51.1V48.225C138.902 47.3916 138.719 46.7916 138.352 46.425C137.985 46.0583 137.369 45.875 136.502 45.875C136.019 45.875 135.494 45.9333 134.927 46.05C134.377 46.1666 133.794 46.3666 133.177 46.65C132.86 46.8 132.577 46.8416 132.327 46.775C132.094 46.7083 131.91 46.575 131.777 46.375C131.644 46.1583 131.577 45.925 131.577 45.675C131.577 45.425 131.644 45.1833 131.777 44.95C131.91 44.7 132.135 44.5166 132.452 44.4C133.219 44.0833 133.952 43.8583 134.652 43.725C135.369 43.5916 136.019 43.525 136.602 43.525C137.802 43.525 138.785 43.7083 139.552 44.075C140.335 44.4416 140.919 45 141.302 45.75C141.685 46.4833 141.877 47.4333 141.877 48.6V54.6C141.877 55.1166 141.752 55.5166 141.502 55.8C141.252 56.0666 140.894 56.2 140.427 56.2C139.96 56.2 139.594 56.0666 139.327 55.8C139.077 55.5166 138.952 55.1166 138.952 54.6V53.4H139.152C139.035 53.9833 138.802 54.4916 138.452 54.925C138.119 55.3416 137.694 55.6666 137.177 55.9C136.66 56.1333 136.069 56.25 135.402 56.25Z" fill="#006D39"/>
</g>
<defs>
<filter id="filter0_i_272_39" x="58.0001" y="0" width="57.9999" height="40.0163" filterUnits="userSpaceOnUse" color-interpolation-filters="sRGB">
<feFlood flood-opacity="0" result="BackgroundImageFix"/>
<feBlend mode="normal" in="SourceGraphic" in2="BackgroundImageFix" result="shape"/>
<feColorMatrix in="SourceAlpha" type="matrix" values="0 0 0 0 0 0 0 0 0 0 0 0 0 0 0 0 0 0 127 0" result="hardAlpha"/>
<feOffset dy="3"/>
<feGaussianBlur stdDeviation="1.5"/>
<feComposite in2="hardAlpha" operator="arithmetic" k2="-1" k3="1"/>
<feColorMatrix type="matrix" values="0 0 0 0 0 0 0 0 0 0 0 0 0 0 0 0 0 0 0.25 0"/>
<feBlend mode="normal" in2="shape" result="effect1_innerShadow_272_39"/>
</filter>
<filter id="filter1_i_272_39" x="33.0592" y="43.525" width="108.818" height="19.925" filterUnits="userSpaceOnUse" color-interpolation-filters="sRGB">
<feFlood flood-opacity="0" result="BackgroundImageFix"/>
<feBlend mode="normal" in="SourceGraphic" in2="BackgroundImageFix" result="shape"/>
<feColorMatrix in="SourceAlpha" type="matrix" values="0 0 0 0 0 0 0 0 0 0 0 0 0 0 0 0 0 0 127 0" result="hardAlpha"/>
<feOffset dy="4"/>
<feGaussianBlur stdDeviation="2"/>
<feComposite in2="hardAlpha" operator="arithmetic" k2="-1" k3="1"/>
<feColorMatrix type="matrix" values="0 0 0 0 0 0 0 0 0 0 0 0 0 0 0 0 0 0 0.2 0"/>
<feBlend mode="normal" in2="shape" result="effect1_innerShadow_272_39"/>
</filter>
<linearGradient id="paint0_linear_272_39" x1="75.2703" y1="36.8984" x2="75.1992" y2="22.5398" gradientUnits="userSpaceOnUse">
<stop stop-color="#009B51"/>
<stop offset="1" stop-color="#00461C"/>
</linearGradient>
<linearGradient id="paint1_linear_272_39" x1="98.612" y1="37.0163" x2="98.6831" y2="22.6577" gradientUnits="userSpaceOnUse">
<stop stop-color="#009B51"/>
<stop offset="1" stop-color="#00461C"/>
</linearGradient>
<linearGradient id="paint2_linear_272_39" x1="73.2664" y1="34.5406" x2="73.2022" y2="18.6024" gradientUnits="userSpaceOnUse">
<stop stop-color="#009B51"/>
<stop offset="1" stop-color="#00461C"/>
</linearGradient>
<linearGradient id="paint3_linear_272_39" x1="100.498" y1="34.6585" x2="100.562" y2="18.7203" gradientUnits="userSpaceOnUse">
<stop stop-color="#009B51"/>
<stop offset="1" stop-color="#00461C"/>
</linearGradient>
<linearGradient id="paint4_linear_272_39" x1="72.0286" y1="29.8301" x2="71.7292" y2="-6.21433" gradientUnits="userSpaceOnUse">
<stop stop-color="#009B51"/>
<stop offset="1" stop-color="#00461C"/>
</linearGradient>
<linearGradient id="paint5_linear_272_39" x1="101.736" y1="29.9431" x2="102.037" y2="-6.52613" gradientUnits="userSpaceOnUse">
<stop stop-color="#009B51"/>
<stop offset="1" stop-color="#00461C"/>
</linearGradient>
</defs>
</svg>
